<svg xmlns="http://www.w3.org/2000/svg" width="48" height="48" fill="none" viewBox="0 0 48 48"><path fill="rgb(0,0,0)" fill-rule="evenodd" d="m31.73 14.86.34-.86h3.82L47 42h-4.02l-2.9-7.52H27.76L24.9 42H21l4.76-12.04 1.1-2.76 3.83-9.7zm-2.16 14.82-.53 1.38h9.72L33.9 18.34zM28.54 17.5l1.04-2.63H18.42V6h-2.8v8.86H1.38v2.63h12.96C11.14 23.75 5.57 29.9 0 32.9a17 17 0 0 1 2.04 2.24c5.13-3.07 10.12-8.64 13.58-14.78V39h2.8V20.31a52 52 0 0 0 5.83 8.03l1.09-2.75a42 42 0 0 1-5.76-8.1z" clip-rule="evenodd"/></svg>